<?xml version="1.0" encoding="UTF-8"?>
<svg id="Camada_1" data-name="Camada 1" xmlns="http://www.w3.org/2000/svg" viewBox="0 0 218.37 193.55">
  <defs>
    <style>
      .cls-1 {
        fill: #0f0f0f;
      }
    </style>
  </defs>
  <path class="cls-1" d="M35.66,18.3l-10.04,1.01L0,41.74v151.81l69.64-29.72,129.48-12.51,19.25-17.42V0L35.66,18.3ZM207.23,123.8l-140.48,14.06-29.97,13.45V29.39L207.23,12.32v111.48Z"/>
  <polygon class="cls-1" points="99.98 98.79 80.08 100.76 80.08 91.29 93.49 89.92 93.49 67.79 80.08 69.16 80.08 59.03 99.36 57.24 99.62 70.09 121.06 68.1 120.72 34.26 49.51 40.86 49.51 61.86 55.66 61.29 55.66 102.9 49.51 103.47 49.51 125.65 121.56 118.98 121.19 81.85 99.89 83.82 99.98 98.79"/>
  <polygon class="cls-1" points="126.27 67.62 145 65.89 145 54.47 149.28 54.07 149.28 90.29 143.17 90.85 143.17 116.68 182.65 113.32 182.65 87.49 176.54 88.06 176.54 51.55 181.26 51.11 181.26 62.53 199.94 60.8 199.94 26.93 126.27 33.75 126.27 67.62"/>
</svg>