<?xml version="1.0" encoding="UTF-8"?>
<svg id="Camada_1" data-name="Camada 1" xmlns="http://www.w3.org/2000/svg" viewBox="0 0 723.44 388.4">
  <defs>
    <style>
      .cls-1 {
        fill: #0f0f0f;
      }
    </style>
  </defs>
  <polygon class="cls-1" points="194.78 134.92 162.75 137.25 163.57 152.3 136.26 154.29 135.63 142.63 154.62 141.25 153.42 119.05 134.43 120.43 133.84 109.4 160.03 107.49 160.84 122.54 192.86 120.2 190.65 79.2 93.34 86.29 94.74 112.25 101.82 111.73 104.24 156.63 97.16 157.14 98.56 183.1 196.99 175.92 194.78 134.92"/>
  <path class="cls-1" d="M248.96,146.08l-7.57.55-.61-11.29,10.55-.77c.95-.07,1.67.09,2.14.47.48.39.94,1.19,1.38,2.42l11.89,33.37,32.27-2.35-1.4-25.96-5.09.37-8.7-18c-.45-.93-1.09-1.9-1.9-2.92l-.04-.71c2.49-1.61,4.71-3.42,6.65-5.43,1.95-2.01,3.44-4.35,4.48-7.03,1.04-2.68,1.46-5.83,1.26-9.47-.47-8.65-4.26-15.16-11.37-19.53-7.11-4.37-17.47-6.06-31.08-5.07l-7.2.52-9.56.7-36.61,2.67,1.4,25.96,7.07-.52,2.42,44.89-7.07.52,1.4,25.96,46.67-3.4-1.4-25.96ZM246.04,101.22l6.7-.49c2.48-.18,4.51.13,6.09.94,1.58.81,2.42,2.22,2.53,4.22.07,1.25-.2,2.32-.79,3.2-.6.88-1.51,1.58-2.75,2.09-1.24.51-2.77.83-4.59.96l-13.65,1-.62-11.41,7.07-.52Z"/>
  <polygon class="cls-1" points="333.81 129.84 334.35 139.85 326.78 140.41 328.18 166.36 375.34 162.92 373.94 136.97 366.37 137.52 365.83 127.5 393.12 90.5 398.21 90.13 396.81 64.17 353.24 67.35 354.64 93.31 362.83 92.71 352.77 107.29 352.04 107.34 340.49 94.34 348.68 93.74 347.28 67.78 296.27 71.5 297.67 97.46 302.64 97.1 333.81 129.84"/>
  <path class="cls-1" d="M619.36,145.14l-56.84,4.14-1.4-25.96,10.91-.79-11.29-13.08-16.74,13.02.11,2.1,6.83-.5,1.4,25.96-45.68,3.32-1.4-25.95,6.83-.5-2.42-44.89-11.29.83.76,14.17-32.02,2.34c-1.48-3.43-3.86-6.04-7.16-7.86-3.3-1.81-7.03-2.57-11.2-2.26-3.77.27-7.02,1.33-9.77,3.16-2.75,1.84-4.82,4.28-6.24,7.32-1.41,3.03-2.01,6.48-1.81,10.32.16,2.93.75,5.58,1.77,7.96,1.02,2.39,2.4,4.39,4.13,6.06,1.73,1.65,3.75,2.88,6.05,3.68,2.31.8,4.81,1.1,7.5.91,3.26-.24,6.16-1.16,8.69-2.78,2.53-1.61,4.54-3.74,6.04-6.39,1.49-2.65,2.36-5.68,2.59-9.09l33.01,2.25c-.65,8.6-3.1,16.28-7.33,23.03-4.23,6.75-9.87,12.18-16.94,16.28-7.07,4.1-15.22,6.49-24.44,7.16-7.61.56-14.63-.16-21.05-2.15-6.42-1.98-12.04-5.06-16.85-9.22-4.82-4.17-8.64-9.22-11.47-15.19-2.84-5.96-4.46-12.66-4.86-20.1-.4-7.35.44-14.16,2.51-20.42,2.07-6.26,5.04-11.76,8.89-16.51,3.85-4.75,8.32-8.53,13.38-11.33,5.06-2.8,10.38-4.41,15.97-4.81,5.21-.38,9.69.39,13.43,2.3,3.73,1.91,6.73,4.98,8.97,9.23,2.24,4.24,3.76,9.7,4.53,16.34l.99-.07-1.51-27.96,82.16-5.99,1.4,25.95-6.83.5.88,16.31,22.08-17.99-9.19.66-1.4-25.95,56.98-4.16,1.4,25.96-7.45.54-20.98,16.31,27.37,28.3,6.59-.48,1.4,25.96Z"/>
  <polygon class="cls-1" points="100.27 231.4 124.18 229.54 123.34 215.24 129.12 214.79 131.41 253.57 125.3 254.04 126.63 276.46 166.5 273.35 165.18 250.93 159.07 251.41 156.78 212.64 162.57 212.18 163.41 226.48 187.32 224.62 185.15 187.9 98.11 194.69 100.27 231.4"/>
  <path class="cls-1" d="M541.43,210.92l-27.66,2.02.69,13-23.58,1.72-.55-10.07,16.41-1.2-1.03-19.17-16.4,1.19-.52-9.53,22.63-1.65.7,13,27.67-2.02-1.91-35.43-84.08,6.13,1.22,22.43,6.11-.44,2.09,38.78-15.66,1.14-7.51-15.55c-.39-.81-.94-1.64-1.65-2.52l-.02-.62c2.14-1.39,4.06-2.95,5.74-4.69,1.68-1.73,2.97-3.76,3.87-6.07.9-2.3,1.26-5.04,1.1-8.18-.41-7.47-3.67-13.1-9.82-16.88-6.15-3.77-15.09-5.23-26.86-4.37l-6.21.45-8.26.6-31.63,2.3,1.22,22.43,6.11-.44,2.09,38.78-15.66,1.14-7.51-15.55c-.39-.8-.94-1.64-1.65-2.52l-.03-.62c2.15-1.38,4.07-2.95,5.75-4.68,1.68-1.74,2.97-3.76,3.87-6.07.9-2.31,1.26-5.04,1.1-8.19-.41-7.47-3.67-13.1-9.82-16.87-6.15-3.78-15.09-5.24-26.85-4.38l-6.22.45-8.25.6-31.64,2.31,1.21,22.42,6.11-.44,2.09,38.78-6.11.45,1.21,22.42,40.32-2.94-1.21-22.43-6.54.49-.53-9.75,9.12-.67c.82-.07,1.44.08,1.85.41.41.34.81,1.02,1.18,2.09l10.28,28.84,73.35-5.35-1.21-22.43-6.54.48-.53-9.75,9.12-.66c.82-.07,1.44.07,1.85.41.41.33.81,1.02,1.18,2.08l10.28,28.84,118.07-8.6-1.91-35.43ZM332.45,207.99c-.52.77-1.31,1.37-2.38,1.81-1.08.43-2.39.71-3.97.83l-11.8.85-.54-9.86,6.11-.44,5.79-.42c2.15-.16,3.9.11,5.27.81,1.36.7,2.09,1.91,2.19,3.65.05,1.08-.17,2-.69,2.76ZM419.95,201.62c-.52.76-1.31,1.37-2.38,1.8-1.08.44-2.39.72-3.97.83l-11.8.86-.54-9.86,6.11-.44,5.79-.43c2.15-.15,3.9.11,5.26.81,1.37.7,2.1,1.92,2.19,3.66.06,1.08-.16,2-.68,2.76Z"/>
  <path class="cls-1" d="M607.31,189.7c-5.68-2.16-12.68-3.24-21.01-3.25-3.2-.02-5.72-.28-7.58-.78-1.86-.5-3.19-1.17-4.01-2.02-.82-.85-1.26-1.81-1.31-2.9-.08-1.52.48-2.7,1.69-3.55,1.21-.85,2.89-1.35,5.03-1.51,3.61-.26,6.63.46,9.05,2.17,2.42,1.71,3.96,4.17,4.6,7.39l27.67-2.02-1.43-26.43-27.67,2.02.83,15.38-.86.06c-.56-3.66-1.78-6.68-3.66-9.06-1.89-2.38-4.4-4.1-7.55-5.16-3.14-1.06-6.86-1.43-11.15-1.12-8.51.62-14.93,3.36-19.26,8.23-4.33,4.87-6.28,11.25-5.86,19.16.35,6.46,2.01,11.85,4.99,16.17s7.31,7.57,12.99,9.77c5.68,2.2,12.74,3.33,21.18,3.41,3.02.03,5.46.22,7.32.55,1.87.34,3.24.87,4.12,1.6.88.73,1.36,1.7,1.42,2.89.09,1.66-.52,3.01-1.83,4.05-1.31,1.04-3.14,1.64-5.5,1.82-3.36.24-6.32-.53-8.87-2.32-2.55-1.79-4.22-4.2-4.99-7.22l-27.67,2.02,1.45,26.87,27.67-2.02-.84-15.49.86-.06c.95,5.62,3.27,9.65,6.95,12.08,3.68,2.43,8.85,3.41,15.5,2.92,8.97-.65,15.63-3.37,19.99-8.15,4.35-4.78,6.3-11.35,5.85-19.73-.35-6.43-2.03-11.79-5.07-16.08-3.03-4.29-7.39-7.52-13.06-9.68Z"/>
  <polygon class="cls-1" points="670.56 191.26 669.44 44.78 621.77 48.25 636.4 193.75 670.56 191.26"/>
  <polygon class="cls-1" points="635.93 239.24 675.92 236.33 673.86 198.15 633.87 201.07 635.93 239.24"/>
  <path class="cls-1" d="M73.25,50.52l-20.21,1.28L0,94.92l16.05,293.48,118.98-44.66,524.41-41.9,64-35.94L708.9,0,73.25,50.52ZM696.66,251.91l-565.54,39.54-43.54,17.56-12.92-236.15L684.2,23.99l12.47,227.92Z"/>
  <path class="cls-1" d="M279.64,223.37c-.34-6.36-1.76-12.08-4.24-17.17-2.48-5.09-5.84-9.42-10.07-12.97-4.23-3.55-9.17-6.17-14.82-7.87-5.65-1.69-11.84-2.29-18.56-1.8-6.68.49-12.75,1.98-18.19,4.48-5.45,2.5-10.08,5.82-13.89,9.96-3.81,4.14-6.68,8.92-8.59,14.33-1.91,5.41-2.7,11.3-2.36,17.66.35,6.43,1.76,12.22,4.25,17.37,2.49,5.15,5.84,9.52,10.07,13.11,4.23,3.59,9.18,6.24,14.86,7.94,5.67,1.71,11.85,2.32,18.54,1.83,6.72-.49,12.79-1.99,18.22-4.51,5.43-2.52,10.05-5.86,13.86-10.04,3.81-4.17,6.67-9,8.59-14.47,1.91-5.47,2.69-11.42,2.35-17.85ZM229.19,233.45c-1.35,3.97-3.76,7.4-7.23,10.27-3.46,2.88-7.41,4.92-11.83,6.13l-.17-9.28c3.14-1.93,4.89-4.42,5.26-7.46l-5.39.31-.47-25.15,21.48-1.25.22,11.5c.11,5.98-.51,10.95-1.86,14.92ZM257.88,231.77c-1.35,3.97-3.76,7.4-7.23,10.27-3.46,2.88-7.41,4.92-11.83,6.13l-.17-9.28c3.08-1.93,4.81-4.41,5.18-7.45l-5.31.31-.47-25.15,21.48-1.25.22,11.5c.11,5.98-.51,10.95-1.86,14.92Z"/>
</svg>